<?xml version="1.0" encoding="UTF-8"?>
<svg id="Layer_1" data-name="Layer 1" xmlns="http://www.w3.org/2000/svg" viewBox="0 0 582.1 84.15">
  <defs>
    <style>
      .cls-1 {
        fill: #14150a;
      }
    </style>
  </defs>
  <path class="cls-1" d="M45.1,2.86h-4.29l-22.52,43.4h5.37L42.68,9.24l22.44,44.11H15.22c-.37,0-.72.21-.89.54L0,81.51h5.61l12.1-23.76h54.97c.37,0,.62-.4.44-.73L45.1,2.86ZM77.18,64.85h-6.13l8.48,16.66h6.27l-8.62-16.66Z"/>
  <path class="cls-1" d="M109.23,77V2.86h-5.28v78.65h64.02v-4.51h-58.74Z"/>
  <path class="cls-1" d="M257.18,61.93c-6.27,6.71-16.72,17.71-39.93,17.71-24.67,0-41.99-11.92-43.64-33.96h-5.52c1.69,24.43,21.01,38.47,49.05,38.47s38.83-13.2,43.89-19.14l-3.85-3.08ZM217.69.11c-28.56,0-47.9,14.14-49.6,38.48h5.51c1.64-22.05,18.77-33.97,43.76-33.97,22.99,0,32.67,10.23,38.5,15.51l3.85-3.08C256.19,13.31,244.97.11,217.69.11Z"/>
  <path class="cls-1" d="M280.89,64.85l-8.64,16.66h5.61l8.48-16.66h-5.45ZM342.87,53.35h-50.6l22.66-44.11,18.83,37.02h6.05l-22.46-43.4h-4.29l-28.1,54.16c-.17.33.07.73.44.73h54.28l12.1,23.76h6.27l-14.29-27.62c-.17-.33-.51-.54-.89-.54Z"/>
  <path class="cls-1" d="M471.91,2.86v78.65h5.28V2.86h-5.28Z"/>
  <path class="cls-1" d="M539,42.46c19.93,1.93,35.26,3.96,37.46,15.29h5.64c-1.81-16.35-22.27-18.24-42.33-20.13-22-2.09-36.3-4.29-36.3-15.95s15.18-17.16,32.89-17.16c22.66,0,32.67,8.69,37.84,17.16l4.73-1.98c-5.17-9.02-16.39-19.69-42.24-19.69-19.25,0-38.72,5.94-38.72,22.22s20.24,18.15,41.03,20.24ZM542.52,79.64c-26.18,0-37.18-10.67-42.57-18.81l-4.62,2.09c5.39,9.24,18.59,21.12,47.08,21.12,18.36,0,36.17-4.98,39.33-19.19h-5.53c-2.79,10.51-16.53,14.79-33.69,14.79Z"/>
  <path class="cls-1" d="M422.07,45.87h2.64c14.52,0,29.04-4.73,29.04-21.67s-14.52-21.34-29.04-21.34h-48.51v31.63h5.28V7.37h43.78c10.56,0,22.99,2.42,22.99,16.83s-12.43,17.38-22.99,17.38h-49.06v39.93h5.28v-35.53h34.71l28.93,35.53h6.96l-30.01-35.53v-.11Z"/>
</svg>