<?xml version="1.0" encoding="UTF-8"?>
<svg id="Layer_1" data-name="Layer 1" xmlns="http://www.w3.org/2000/svg" viewBox="0 0 208.54 252.66">
  <defs>
    <style>
      .cls-1 {
        fill: #14150a;
      }
    </style>
  </defs>
  <path class="cls-1" d="M111.87,74.14V0h-5.28v78.65h64.02v-4.51h-58.74Z"/>
  <path class="cls-1" d="M89.09,144.81c-6.27,6.71-16.72,17.71-39.93,17.71-24.67,0-41.99-11.92-43.64-33.96H0c1.69,24.43,21.01,38.47,49.05,38.47s38.83-13.2,43.89-19.14l-3.85-3.08ZM49.6,82.99c-28.56,0-47.9,14.14-49.6,38.48h5.51c1.64-22.05,18.77-33.97,43.76-33.97,22.99,0,32.67,10.23,38.5,15.51l3.85-3.08c-3.52-3.74-14.74-16.94-42.02-16.94Z"/>
  <path class="cls-1" d="M11.28,61.99l-8.64,16.66h5.61l8.48-16.66h-5.45ZM73.26,50.49H22.66L45.32,6.38l18.83,37.02h6.05L47.74,0h-4.29L15.35,54.16c-.17.33.07.73.44.73h54.28l12.1,23.76h6.27l-14.29-27.62c-.17-.33-.51-.54-.89-.54Z"/>
  <g>
    <path class="cls-1" d="M98.35,171.48v78.65h5.28v-78.65h-5.28Z"/>
    <path class="cls-1" d="M165.44,211.08c19.93,1.93,35.26,3.96,37.46,15.29h5.64c-1.81-16.35-22.27-18.24-42.33-20.13-22-2.09-36.3-4.29-36.3-15.95s15.18-17.16,32.89-17.16c22.66,0,32.67,8.69,37.84,17.16l4.73-1.98c-5.17-9.02-16.39-19.69-42.24-19.69-19.25,0-38.72,5.94-38.72,22.22s20.24,18.15,41.03,20.24ZM168.96,248.26c-26.18,0-37.18-10.67-42.57-18.81l-4.62,2.09c5.39,9.24,18.59,21.12,47.08,21.12,18.36,0,36.17-4.98,39.33-19.19h-5.53c-2.79,10.51-16.53,14.79-33.69,14.79Z"/>
    <path class="cls-1" d="M48.51,214.49h2.64c14.52,0,29.04-4.73,29.04-21.67s-14.52-21.34-29.04-21.34H2.64v31.63h5.28v-27.12h43.78c10.56,0,22.99,2.42,22.99,16.83s-12.43,17.38-22.99,17.38H2.64v39.93h5.28v-35.53h34.71l28.93,35.53h6.96l-30.01-35.53v-.11Z"/>
  </g>
  <path class="cls-1" d="M149.26,85.74h-4.29l-22.52,43.4h5.37l19.02-37.02,22.44,44.11h-49.9c-.37,0-.72.21-.89.54l-14.33,27.62h5.61l12.1-23.76h54.97c.37,0,.62-.4.44-.73l-28.02-54.16ZM181.34,147.73h-6.13l8.48,16.66h6.27l-8.62-16.66Z"/>
</svg>