<?xml version="1.0" encoding="UTF-8"?>
<svg xmlns="http://www.w3.org/2000/svg" width="1200" height="630" viewBox="0 0 1200 630">
  <defs>
    <linearGradient id="bg" x1="0%" y1="0%" x2="100%" y2="100%">
      <stop offset="0%" stop-color="#1a1d0f"/>
      <stop offset="45%" stop-color="#3B401F"/>
      <stop offset="100%" stop-color="#1a1d0f"/>
    </linearGradient>
  </defs>

  <rect width="1200" height="630" fill="url(#bg)"/>

  <g fill="#F2E9D0" transform="translate(249, 247) scale(1.2)">
    <path d="M45.1,2.86h-4.29l-22.52,43.4h5.37L42.68,9.24l22.44,44.11H15.22c-.37,0-.72.21-.89.54L0,81.51h5.61l12.1-23.76h54.97c.37,0,.62-.4.44-.73L45.1,2.86ZM77.18,64.85h-6.13l8.48,16.66h6.27l-8.62-16.66Z"/>
    <path d="M109.23,77V2.86h-5.28v78.65h64.02v-4.51h-58.74Z"/>
    <path d="M257.18,61.93c-6.27,6.71-16.72,17.71-39.93,17.71-24.67,0-41.99-11.92-43.64-33.96h-5.52c1.69,24.43,21.01,38.47,49.05,38.47s38.83-13.2,43.89-19.14l-3.85-3.08ZM217.69.11c-28.56,0-47.9,14.14-49.6,38.48h5.51c1.64-22.05,18.77-33.97,43.76-33.97,22.99,0,32.67,10.23,38.5,15.51l3.85-3.08C256.19,13.31,244.97.11,217.69.11Z"/>
    <path d="M280.89,64.85l-8.64,16.66h5.61l8.48-16.66h-5.45ZM342.87,53.35h-50.6l22.66-44.11,18.83,37.02h6.05l-22.46-43.4h-4.29l-28.1,54.16c-.17.33.07.73.44.73h54.28l12.1,23.76h6.27l-14.29-27.62c-.17-.33-.51-.54-.89-.54Z"/>
    <path d="M471.91,2.86v78.65h5.28V2.86h-5.28Z"/>
    <path d="M539,42.46c19.93,1.93,35.26,3.96,37.46,15.29h5.64c-1.81-16.35-22.27-18.24-42.33-20.13-22-2.09-36.3-4.29-36.3-15.95s15.18-17.16,32.89-17.16c22.66,0,32.67,8.69,37.84,17.16l4.73-1.98c-5.17-9.02-16.39-19.69-42.24-19.69-19.25,0-38.72,5.94-38.72,22.22s20.24,18.15,41.03,20.24ZM542.52,79.64c-26.18,0-37.18-10.67-42.57-18.81l-4.62,2.09c5.39,9.24,18.59,21.12,47.08,21.12,18.36,0,36.17-4.98,39.33-19.19h-5.53c-2.79,10.51-16.53,14.79-33.69,14.79Z"/>
    <path d="M422.07,45.87h2.64c14.52,0,29.04-4.73,29.04-21.67s-14.52-21.34-29.04-21.34h-48.51v31.63h5.28V7.37h43.78c10.56,0,22.99,2.42,22.99,16.83s-12.43,17.38-22.99,17.38h-49.06v39.93h5.28v-35.53h34.71l28.93,35.53h6.96l-30.01-35.53v-.11Z"/>
    <path d="M77.53,120.08c0-3.34-2.57-5.25-7.05-5.25h-11.76v18.57h2.6v-7.96h6.71l6.24,7.96h3.42l-6.63-8.02c4.14-.16,6.49-2.07,6.49-5.29ZM70.65,123.08h-9.34v-5.91h9.34c4.21,0,4.21,2.19,4.21,2.9,0,1.99-1.42,3-4.21,3Z"/>
    <path d="M194.75,125.97c0,3.92-2.21,5.67-7.17,5.67s-7.19-1.75-7.19-5.67v-11.15h-2.6v11.15c0,5.38,3.2,7.99,9.79,7.99s9.77-2.61,9.77-7.99v-11.15h-2.6v11.15Z"/>
    <rect x="237.07" y="114.83" width="2.6" height="18.57"/>
    <polygon points="276.72 117.18 284.98 117.18 284.98 133.4 287.58 133.4 287.58 117.18 295.81 117.18 295.81 114.83 276.72 114.83 276.72 117.18"/>
    <polygon points="335.89 125.09 347.54 125.09 347.54 122.74 335.89 122.74 335.89 117.18 349.82 117.18 349.82 114.83 333.29 114.83 333.29 133.4 350.95 133.4 350.95 131.05 335.89 131.05 335.89 125.09"/>
    <polygon points="386.02 117.18 394.28 117.18 394.28 133.4 396.88 133.4 396.88 117.18 405.11 117.18 405.11 114.83 386.02 114.83 386.02 117.18"/>
    <path d="M459.3,125.97c0,3.92-2.21,5.67-7.17,5.67s-7.19-1.75-7.19-5.67v-11.15h-2.6v11.15c0,5.38,3.2,7.99,9.79,7.99s9.77-2.61,9.77-7.99v-11.15h-2.6v11.15Z"/>
    <path d="M139.23,124.1c0-6.01-4.65-9.89-11.84-9.89s-11.76,3.88-11.76,9.89,4.62,9.87,11.76,9.87c2.15,0,4.08-.33,5.74-.99l3.04,3.09h3.75l-4.44-4.36c2.43-1.76,3.76-4.44,3.76-7.61ZM136.53,124.1c0,2.44-1.02,4.49-2.88,5.82l-3.14-3.09h-3.44l4.19,4.25c-1.14.36-2.44.54-3.86.54-5.59,0-9.07-2.88-9.07-7.51s3.47-7.54,9.07-7.54,9.14,2.89,9.14,7.54Z"/>
    <path d="M520.82,120.08c0-3.34-2.57-5.25-7.05-5.25h-11.76v18.57h2.6v-7.96h6.71l6.24,7.96h3.41l-6.63-8.02c4.14-.16,6.49-2.07,6.49-5.29ZM518.15,120.08c0,1.99-1.42,3-4.21,3h-9.34v-5.91h9.34c4.21,0,4.21,2.19,4.21,2.9Z"/>
    <path d="M11.67,114.82h-1.8L0,133.39h2.87l2.64-5.1h10.3l2.66,5.1h3.05l-9.85-18.57ZM6.37,126.14l4.3-8.11,4.3,8.11H6.37Z"/>
    <path d="M569.08,114.83h-1.8l-9.87,18.57h2.87l2.64-5.1h10.3l2.66,5.1h3.05l-9.85-18.57ZM563.78,126.14l4.3-8.11,4.3,8.11h-8.61Z"/>
  </g>
</svg>
